<svg id="Layer_1" data-name="Layer 1" xmlns="http://www.w3.org/2000/svg" viewBox="0 0 1346.98 346.46" width="1347" height="347"><defs><style>.cls-1{fill:#a30000;}.cls-2{fill:#c00;}.cls-3{fill:#820000;}.cls-4{fill:#4c4c4c;}</style></defs><title>Logotype_RH_OpenShiftContainerPlatform_wLogo_RGB_Gray</title><path class="cls-1" d="M186.06,234.13l-60.58,22.05a176,176,0,0,0,4.8,28.7l57.54-20.95a112.86,112.86,0,0,1-1.77-29.81" transform="translate(-76.51 -78.77)"/><path class="cls-1" d="M453.76,167.16A173,173,0,0,0,439,142.07l-60.56,22.06a112.59,112.59,0,0,1,17.79,24Z" transform="translate(-76.51 -78.77)"/><path class="cls-2" d="M320.5,150a111.82,111.82,0,0,1,32.7,23.31l60.58-22A172.33,172.33,0,0,0,346.15,95c-86.57-40.36-189.86-2.77-230.23,83.79a172.22,172.22,0,0,0-15.64,86.57l60.58-22A112.24,112.24,0,0,1,320.5,150" transform="translate(-76.51 -78.77)"/><path class="cls-2" d="M134.07,283.51l-57.55,21a175.37,175.37,0,0,0,27.05,58.65l60.44-22a113.09,113.09,0,0,1-29.94-57.62" transform="translate(-76.51 -78.77)"/><path class="cls-2" d="M385.08,260.67a110.76,110.76,0,0,1-10.17,38.88A112.64,112.64,0,0,1,225.35,354a111.48,111.48,0,0,1-32.78-23.27l-60.43,22A171.62,171.62,0,0,0,199.71,409c86.57,40.36,189.85,2.76,230.22-83.8a171.37,171.37,0,0,0,15.59-86.53Z" transform="translate(-76.51 -78.77)"/><path class="cls-2" d="M400,186.73l-57.54,21A113,113,0,0,1,356.52,271l60.44-22a174.66,174.66,0,0,0-17-62.34" transform="translate(-76.51 -78.77)"/><path class="cls-3" d="M185.82,246.3a110.56,110.56,0,0,1,.23-12.17l-60.58,22.05c0.3,3.89.81,7.74,1.39,11.58Z" transform="translate(-76.51 -78.77)"/><path class="cls-3" d="M445,151.2c-1.91-3.09-3.88-6.15-6-9.13l-60.55,22.06a102.06,102.06,0,0,1,7.45,8.58Z" transform="translate(-76.51 -78.77)"/><path class="cls-1" d="M132.14,352.73a172.36,172.36,0,0,0,15.4,18.71l65.8-24a111.3,111.3,0,0,1-20.77-16.72Zm313.37-114-60.43,22a110.77,110.77,0,0,1-5.11,26l65.78-24a171.47,171.47,0,0,0-.23-24" transform="translate(-76.51 -78.77)"/><path class="cls-4" d="M566.26,178.15l-12.73-26.29h-8.71v26.29H523.65v-78h34.87a51.78,51.78,0,0,1,12.42,1.39,26.45,26.45,0,0,1,9.63,4.4,19.64,19.64,0,0,1,6.18,7.85,28.63,28.63,0,0,1,2.17,11.75q0,8.8-3.8,14.37a24,24,0,0,1-10.27,8.47l15.63,29.75H566.26Zm-1-58q-2.18-2.34-7.33-2.34h-13.1v17h12.76q5.37,0,7.61-2.23t2.24-6.46A8.46,8.46,0,0,0,565.25,120.11Z" transform="translate(-76.51 -78.77)"/><path class="cls-4" d="M606.76,178.15v-78h59.71v18.16H628.15V128.8h23.06v17.82H628.15V160h39.1v18.16H606.76Z" transform="translate(-76.51 -78.77)"/><path class="cls-4" d="M749.13,157.26a28.11,28.11,0,0,1-8,12.14,32.4,32.4,0,0,1-13.2,6.68,72.16,72.16,0,0,1-18.22,2.06H684.4v-78H711.7a67.55,67.55,0,0,1,16.6,1.89,30.24,30.24,0,0,1,12.64,6.41,29.45,29.45,0,0,1,8,11.86q2.84,7.35,2.84,18.38T749.13,157.26ZM728.69,129.8a15,15,0,0,0-3.06-6.35,12.47,12.47,0,0,0-5.57-3.62,26.62,26.62,0,0,0-8.47-1.17h-5.35v41h4.68a30.35,30.35,0,0,0,8.58-1.06,13,13,0,0,0,5.85-3.45,14,14,0,0,0,3.29-6.35,40.29,40.29,0,0,0,1-9.75A39.65,39.65,0,0,0,728.69,129.8Z" transform="translate(-76.51 -78.77)"/><path class="cls-4" d="M854.62,178.15V147.4H830.34v30.75H808.28v-78h22.06v28.41h24.28V100.17h22.06v78H854.62Z" transform="translate(-76.51 -78.77)"/><path class="cls-4" d="M946.19,178.15L942,164.44H918.56l-4.23,13.7H891.16l28.29-78h21.84l28.29,78H946.19Zm-10.92-36q-1-3.79-1.78-6.57t-1.4-5q-0.61-2.23-1.06-4.07t-0.78-3.84c-0.22,1.34-.49,2.64-0.78,3.9s-0.65,2.64-1.06,4.12-0.87,3.16-1.39,5-1.12,4-1.78,6.46l-1.45,5.12h12.92Z" transform="translate(-76.51 -78.77)"/><path class="cls-4" d="M1013.71,119v59.15H992.09V119H970.26V100.17h65.28V119h-21.84Z" transform="translate(-76.51 -78.77)"/><path class="cls-4" d="M1064.49,113.66a9.67,9.67,0,0,1-5.3,5.31,10.73,10.73,0,0,1-8,0,9.66,9.66,0,0,1-5.31-5.31,10.73,10.73,0,0,1,0-8,9.66,9.66,0,0,1,5.31-5.31,10.73,10.73,0,0,1,8,0,9.67,9.67,0,0,1,5.3,5.31A10.73,10.73,0,0,1,1064.49,113.66Zm-1.49-7.31a8.25,8.25,0,0,0-1.79-2.69,8.14,8.14,0,0,0-2.69-1.78,9,9,0,0,0-6.67,0,8.14,8.14,0,0,0-4.46,4.47,9,9,0,0,0,0,6.67,8.2,8.2,0,0,0,4.46,4.46,9,9,0,0,0,6.67,0,8.18,8.18,0,0,0,2.69-1.78A8.28,8.28,0,0,0,1063,113,9,9,0,0,0,1063,106.35Zm-3.87,3.08a3.26,3.26,0,0,1-1.7,1.11l2.26,4.43h-2.19l-2.14-4.23h-2.11V115h-1.87V104h4.8a4.8,4.8,0,0,1,1.37.19,3.18,3.18,0,0,1,1.14.6,2.89,2.89,0,0,1,.78,1,3.51,3.51,0,0,1,.29,1.49A3.31,3.31,0,0,1,1059.13,109.43Zm-1.73-3.23a2,2,0,0,0-1.26-.39h-2.9v3.12h2.9a2,2,0,0,0,1.26-.37A1.64,1.64,0,0,0,1057.4,106.2Z" transform="translate(-76.51 -78.77)"/><path class="cls-4" d="M612.22,283.06a58.26,58.26,0,0,1-9.94,19.13,46,46,0,0,1-15.46,12.53,46.28,46.28,0,0,1-39.69.08,44.45,44.45,0,0,1-15.29-12.45,58,58,0,0,1-9.78-19.05,81.33,81.33,0,0,1-3.43-24.23,80.39,80.39,0,0,1,3.51-24.31A59.2,59.2,0,0,1,532,215.63a45.15,45.15,0,0,1,15.37-12.53,46.28,46.28,0,0,1,39.69-.08,44.57,44.57,0,0,1,15.29,12.45,59.35,59.35,0,0,1,9.86,19,79.6,79.6,0,0,1,3.51,24.23A80.4,80.4,0,0,1,612.22,283.06Zm-12.28-43.95a49.69,49.69,0,0,0-7.6-15.38A34.06,34.06,0,0,0,581,213.88a30.09,30.09,0,0,0-14.2-3.43,29.23,29.23,0,0,0-14,3.43,33.37,33.37,0,0,0-11.11,9.69,48.24,48.24,0,0,0-7.35,15.21,69.52,69.52,0,0,0-2.67,20,67.61,67.61,0,0,0,2.76,20A50.69,50.69,0,0,0,542,294.09a33.15,33.15,0,0,0,11.28,9.86,30,30,0,0,0,14.2,3.43,29.71,29.71,0,0,0,14-3.43,33.09,33.09,0,0,0,11.2-9.69A48.43,48.43,0,0,0,600,279a69.66,69.66,0,0,0,2.67-20A67.6,67.6,0,0,0,599.94,239.11Z" transform="translate(-76.51 -78.77)"/><path class="cls-4" d="M724.59,250.81a31.81,31.81,0,0,1-8.1,11.36A34.25,34.25,0,0,1,704,269.11a52.53,52.53,0,0,1-16,2.34H659.51v46h-13v-117h43.78A50,50,0,0,1,705,202.52,32.29,32.29,0,0,1,716.82,209a29.87,29.87,0,0,1,7.86,10.94A42.89,42.89,0,0,1,724.59,250.81Zm-16.46-32.42q-6.35-6.1-18.38-6.1H659.51v47.29h28.57q26.4,0,26.4-23.73Q714.48,224.49,708.13,218.39Z" transform="translate(-76.51 -78.77)"/><path class="cls-4" d="M754.76,317.4v-117h70.68v11.86H767.79v36.76h33.42v11.87H767.79v44.61h60.16V317.4H754.76Z" transform="translate(-76.51 -78.77)"/><path class="cls-4" d="M929.88,317.4l-51-80q-1-1.5-2.17-3.59l-2.33-4.18q-1.17-2.09-2.25-3.93a27.23,27.23,0,0,1-1.58-3V317.4h-12.7v-117h12.7L921.19,282q1,1.5,2.17,3.59l2.34,4.18q1.17,2.09,2.26,3.93a28.88,28.88,0,0,1,1.59,3V200.43h12.7v117H929.88Z" transform="translate(-76.51 -78.77)"/><path class="cls-4" d="M1047.09,299.52a28.46,28.46,0,0,1-7.61,10.36,36.91,36.91,0,0,1-12.2,6.85,49.53,49.53,0,0,1-16.37,2.51,52.87,52.87,0,0,1-22.14-4.6A57.49,57.49,0,0,1,971.65,303l8.69-9.69a59.25,59.25,0,0,0,14.37,10.19,36.78,36.78,0,0,0,16.71,3.84q11.7,0,18.47-5.35t6.77-14.7a19.69,19.69,0,0,0-1.34-7.35,16.37,16.37,0,0,0-4.6-6.18,43.62,43.62,0,0,0-8.61-5.6,110.18,110.18,0,0,0-13.37-5.6,115.88,115.88,0,0,1-16-6.77,43.16,43.16,0,0,1-10.36-7.35,23.78,23.78,0,0,1-5.68-8.77A32.82,32.82,0,0,1,975,228.5,28.32,28.32,0,0,1,977.66,216a27.83,27.83,0,0,1,7.43-9.44,32.31,32.31,0,0,1,11.53-5.93,52.48,52.48,0,0,1,15-2q11.7,0,20,3.34a63,63,0,0,1,15.63,9.19l-8.35,10.19a51.57,51.57,0,0,0-12.78-8.1,38.67,38.67,0,0,0-15.29-2.76,33.56,33.56,0,0,0-10.36,1.42,20.92,20.92,0,0,0-7.1,3.76,14,14,0,0,0-4,5.43,17.35,17.35,0,0,0-1.26,6.6,20.33,20.33,0,0,0,1,6.6,14.11,14.11,0,0,0,4,5.68,36,36,0,0,0,8.44,5.43,140,140,0,0,0,14.29,5.85,122.9,122.9,0,0,1,16.21,7,40.59,40.59,0,0,1,10.44,7.69,24.78,24.78,0,0,1,5.6,9.19,36.4,36.4,0,0,1,1.67,11.53A32.23,32.23,0,0,1,1047.09,299.52Z" transform="translate(-76.51 -78.77)"/><path class="cls-4" d="M1153,317.4V262.26H1094.8V317.4h-13v-117h13v50H1153v-50h13v117h-13Z" transform="translate(-76.51 -78.77)"/><path class="cls-4" d="M1202.58,317.4v-117h13v117h-13Z" transform="translate(-76.51 -78.77)"/><path class="cls-4" d="M1265.24,212.29v38.77h32.08v11.86h-32.08V317.4h-13v-117h68.68v11.86h-55.65Z" transform="translate(-76.51 -78.77)"/><path class="cls-4" d="M1389.06,212.29V317.4h-13V212.29H1341.6V200.43h81.88v11.86h-34.42Z" transform="translate(-76.51 -78.77)"/><path class="cls-4" d="M558.38,399a23.88,23.88,0,0,1-11.89,2.9,23.24,23.24,0,0,1-10.29-2.23,22.53,22.53,0,0,1-7.81-6.26,29.36,29.36,0,0,1-5-9.58,43.37,43.37,0,0,1,0-24.49,29.29,29.29,0,0,1,5-9.62,22.54,22.54,0,0,1,7.81-6.26,23.23,23.23,0,0,1,10.29-2.23,23.88,23.88,0,0,1,12.1,2.81,21.22,21.22,0,0,1,7.9,8.19l-7.81,4.87a16.76,16.76,0,0,0-5-5.33,13.27,13.27,0,0,0-7.22-1.72q-7.73,0-11.76,5.8t-4,15.71q0,9.91,4,15.71t11.76,5.8a14.44,14.44,0,0,0,7.64-1.85,16.5,16.5,0,0,0,5.29-5.46l7.31,4.87A22.18,22.18,0,0,1,558.38,399Z" transform="translate(-76.51 -78.77)"/><path class="cls-4" d="M612.18,388.48a21.2,21.2,0,0,1-4.2,7.31,18,18,0,0,1-6.3,4.54,19.78,19.78,0,0,1-7.9,1.55,17.82,17.82,0,0,1-13.86-6.3,22.11,22.11,0,0,1-4.07-7.22,28.34,28.34,0,0,1-1.47-9.41,28.92,28.92,0,0,1,1.51-9.66,21.67,21.67,0,0,1,4.16-7.27,17.65,17.65,0,0,1,6.22-4.54,19.25,19.25,0,0,1,7.77-1.55,18.66,18.66,0,0,1,14.07,6.22,20.75,20.75,0,0,1,4.12,7.18,28.48,28.48,0,0,1,1.47,9.37A29.55,29.55,0,0,1,612.18,388.48ZM602,368.15a9.75,9.75,0,0,0-8.27-4,9,9,0,0,0-7.77,4q-2.82,4-2.81,10.54,0,7.31,3,11.13a9.67,9.67,0,0,0,8,3.82,8.67,8.67,0,0,0,4.45-1.18,11.16,11.16,0,0,0,3.44-3.15,14.63,14.63,0,0,0,2.18-4.66,21,21,0,0,0,.76-5.71Q605,372.14,602,368.15Z" transform="translate(-76.51 -78.77)"/><path class="cls-4" d="M651.16,401V376.06q0-6.7-2.38-9.39a8.43,8.43,0,0,0-6.65-2.68,8.06,8.06,0,0,0-6.69,2.93q-2.34,2.93-2.34,8.3V401h-8.74v-44.1h8.74v4.25a11,11,0,0,1,4.66-3.82,15.31,15.31,0,0,1,6.43-1.36q7.73,0,11.72,5t4,14.78V401h-8.74Z" transform="translate(-76.51 -78.77)"/><path class="cls-4" d="M692.91,399.86a14.7,14.7,0,0,1-3.74,1.47,19.25,19.25,0,0,1-4.75.55,9.42,9.42,0,0,1-7.27-2.86q-2.65-2.85-2.65-8.82V364.75h-6.3v-7.9h6.3v-12.6l8.48-4.54v17.14h10.92v7.9H683v23.94q0,3.11,1,4.2a4.68,4.68,0,0,0,3.49,1.09,11.61,11.61,0,0,0,3.44-.55,14.76,14.76,0,0,0,2.94-1.22Z" transform="translate(-76.51 -78.77)"/><path class="cls-4" d="M729.7,401v-4.37a19.75,19.75,0,0,1-5.38,3.78,15.16,15.16,0,0,1-6.72,1.51,19.26,19.26,0,0,1-5.42-.8,14,14,0,0,1-4.91-2.56,13.27,13.27,0,0,1-3.57-4.62,15.66,15.66,0,0,1-1.39-6.89,14.12,14.12,0,0,1,1.34-6.38,12.42,12.42,0,0,1,3.7-4.45,15.85,15.85,0,0,1,5.54-2.6,27.36,27.36,0,0,1,7-.84,24.43,24.43,0,0,1,9.83,1.68v-3.28a7.08,7.08,0,0,0-2.14-5.54,8.92,8.92,0,0,0-6.17-1.93,25.93,25.93,0,0,0-6.17.67,22.06,22.06,0,0,0-5.33,2.1l-3.36-6.55a27.2,27.2,0,0,1,6.8-2.94,31,31,0,0,1,8.32-1q7.39,0,12,3.65t4.58,11.13V401H729.7Zm0-18.82a16.11,16.11,0,0,0-4.16-1.43,29.35,29.35,0,0,0-5.92-.5A11.11,11.11,0,0,0,713,382a5.6,5.6,0,0,0-2.44,4.79,7,7,0,0,0,2.1,5.29q2.1,2,6.38,2a11.69,11.69,0,0,0,6.34-1.76,15.11,15.11,0,0,0,4.33-3.86v-6.3Z" transform="translate(-76.51 -78.77)"/><path class="cls-4" d="M759.31,349.5a5.33,5.33,0,0,1-3.91,1.64,5.43,5.43,0,0,1-4-1.64,5.33,5.33,0,0,1-1.64-3.91A5.6,5.6,0,0,1,755.4,340a5.33,5.33,0,0,1,3.91,1.64,5.43,5.43,0,0,1,1.64,4A5.33,5.33,0,0,1,759.31,349.5ZM751,401v-44.1h8.74V401H751Z" transform="translate(-76.51 -78.77)"/><path class="cls-4" d="M799.67,401V376.06q0-6.7-2.38-9.39a8.43,8.43,0,0,0-6.65-2.68,8.06,8.06,0,0,0-6.69,2.93q-2.34,2.93-2.34,8.3V401h-8.74v-44.1h8.74v4.25a11,11,0,0,1,4.66-3.82,15.32,15.32,0,0,1,6.43-1.36q7.73,0,11.72,5t4,14.78V401h-8.74Z" transform="translate(-76.51 -78.77)"/><path class="cls-4" d="M856.45,380.25q-0.08,1.05-.17,1.72H827.14a18.12,18.12,0,0,0,1.34,5.46,11.84,11.84,0,0,0,2.52,3.74,9.92,9.92,0,0,0,3.36,2.18,10.63,10.63,0,0,0,3.86.71,13.56,13.56,0,0,0,5.08-.92,18.87,18.87,0,0,0,4.49-2.6l5.13,5.54a21.75,21.75,0,0,1-6.55,4.28,22.36,22.36,0,0,1-8.65,1.51,18.27,18.27,0,0,1-7.35-1.51,17.18,17.18,0,0,1-6.09-4.45,21.6,21.6,0,0,1-4.12-7.22,29.18,29.18,0,0,1-1.51-9.74,31.34,31.34,0,0,1,1.43-9.91,20.84,20.84,0,0,1,3.95-7.18,16.46,16.46,0,0,1,6.09-4.41,19.94,19.94,0,0,1,7.85-1.51,17.93,17.93,0,0,1,8.19,1.76,16.65,16.65,0,0,1,5.8,4.79,20.77,20.77,0,0,1,3.44,7.06,31.21,31.21,0,0,1,1.13,8.48C856.54,378.81,856.51,379.55,856.45,380.25Zm-9.45-9.7a10.19,10.19,0,0,0-1.89-3.53,9,9,0,0,0-3.15-2.39,10.77,10.77,0,0,0-4.58-.88,8.78,8.78,0,0,0-6.93,2.9,14.48,14.48,0,0,0-3.15,8.19h20.5A19,19,0,0,0,847,370.54Z" transform="translate(-76.51 -78.77)"/><path class="cls-4" d="M891.31,366a14.75,14.75,0,0,0-2.94-1.18,14,14,0,0,0-3.7-.42,7.69,7.69,0,0,0-6.38,2.86q-2.27,2.86-2.27,8.48V401h-8.74v-44.1H876v4.2a12.3,12.3,0,0,1,10.08-5.12,17.45,17.45,0,0,1,4.41.46,9.88,9.88,0,0,1,3.07,1.39Z" transform="translate(-76.51 -78.77)"/><path class="cls-4" d="M968.43,368.53a15.9,15.9,0,0,1-4,5.8,17,17,0,0,1-6.16,3.53,24.86,24.86,0,0,1-7.83,1.18H935.07V401h-8.74v-58.8H951a23.4,23.4,0,0,1,7.52,1.18,16.65,16.65,0,0,1,6,3.49,16,16,0,0,1,3.95,5.75A23,23,0,0,1,968.43,368.53Zm-10.28-15.46a10.16,10.16,0,0,0-7.33-2.6H935.07v20.24h15.74q5,0,7.54-2.69t2.51-7.48Q960.86,355.68,958.14,353.07Z" transform="translate(-76.51 -78.77)"/><path class="cls-4" d="M980.35,401v-56.7l8.74-4.54V401h-8.74Z" transform="translate(-76.51 -78.77)"/><path class="cls-4" d="M1027.47,401v-4.37a19.74,19.74,0,0,1-5.38,3.78,15.16,15.16,0,0,1-6.72,1.51,19.25,19.25,0,0,1-5.42-.8,14,14,0,0,1-4.91-2.56,13.26,13.26,0,0,1-3.57-4.62,15.66,15.66,0,0,1-1.39-6.89,14.12,14.12,0,0,1,1.34-6.38,12.43,12.43,0,0,1,3.7-4.45,15.84,15.84,0,0,1,5.54-2.6,27.37,27.37,0,0,1,7-.84,24.43,24.43,0,0,1,9.83,1.68v-3.28a7.08,7.08,0,0,0-2.14-5.54,8.92,8.92,0,0,0-6.17-1.93,25.93,25.93,0,0,0-6.17.67,22.08,22.08,0,0,0-5.33,2.1l-3.36-6.55a27.18,27.18,0,0,1,6.8-2.94,31,31,0,0,1,8.32-1q7.39,0,12,3.65t4.58,11.13V401h-8.48Zm0-18.82a16.12,16.12,0,0,0-4.16-1.43,29.35,29.35,0,0,0-5.92-.5,11.11,11.11,0,0,0-6.64,1.76,5.6,5.6,0,0,0-2.44,4.79,7,7,0,0,0,2.1,5.29q2.1,2,6.38,2a11.69,11.69,0,0,0,6.34-1.76,15.11,15.11,0,0,0,4.33-3.86v-6.3Z" transform="translate(-76.51 -78.77)"/><path class="cls-4" d="M1069.47,399.86a14.71,14.71,0,0,1-3.74,1.47,19.26,19.26,0,0,1-4.75.55,9.42,9.42,0,0,1-7.27-2.86q-2.65-2.85-2.65-8.82V364.75h-6.3v-7.9h6.3v-12.6l8.48-4.54v17.14h10.92v7.9h-10.92v23.94q0,3.11,1,4.2a4.68,4.68,0,0,0,3.49,1.09,11.62,11.62,0,0,0,3.44-.55,14.76,14.76,0,0,0,2.94-1.22Z" transform="translate(-76.51 -78.77)"/><path class="cls-4" d="M1095.85,347.53a4.3,4.3,0,0,0-3.11.92,4.73,4.73,0,0,0-.92,3.36v5H1100v8.06h-8.15v36h-8.74v-36h-5.71v-8.06h5.71v-5.8a13.12,13.12,0,0,1,.89-5.12,9.37,9.37,0,0,1,2.42-3.44,9.17,9.17,0,0,1,3.56-1.93,15.79,15.79,0,0,1,4.39-.59,28.37,28.37,0,0,1,3.4.21,19.68,19.68,0,0,1,3.15.63v7.56A18.18,18.18,0,0,0,1095.85,347.53Z" transform="translate(-76.51 -78.77)"/><path class="cls-4" d="M1144.4,388.48a21.18,21.18,0,0,1-4.2,7.31,18,18,0,0,1-6.3,4.54,19.79,19.79,0,0,1-7.9,1.55,17.82,17.82,0,0,1-13.86-6.3,22.1,22.1,0,0,1-4.08-7.22,28.34,28.34,0,0,1-1.47-9.41,28.92,28.92,0,0,1,1.51-9.66,21.67,21.67,0,0,1,4.16-7.27,17.65,17.65,0,0,1,6.22-4.54,19.25,19.25,0,0,1,7.77-1.55,18.66,18.66,0,0,1,14.07,6.22,20.76,20.76,0,0,1,4.12,7.18,28.44,28.44,0,0,1,1.47,9.37A29.55,29.55,0,0,1,1144.4,388.48Zm-10.21-20.33a9.75,9.75,0,0,0-8.27-4,9,9,0,0,0-7.77,4q-2.82,4-2.81,10.54,0,7.31,3,11.13a9.67,9.67,0,0,0,8,3.82,8.66,8.66,0,0,0,4.45-1.18,11.15,11.15,0,0,0,3.45-3.15,14.64,14.64,0,0,0,2.18-4.66,21,21,0,0,0,.76-5.71Q1137.18,372.14,1134.2,368.15Z" transform="translate(-76.51 -78.77)"/><path class="cls-4" d="M1180.61,366a14.77,14.77,0,0,0-2.94-1.18,14,14,0,0,0-3.7-.42,7.69,7.69,0,0,0-6.38,2.86q-2.27,2.86-2.27,8.48V401h-8.74v-44.1h8.74v4.2a12.3,12.3,0,0,1,10.08-5.12,17.46,17.46,0,0,1,4.41.46,9.89,9.89,0,0,1,3.07,1.39Z" transform="translate(-76.51 -78.77)"/><path class="cls-4" d="M1243.1,401V376.06q0-6.7-2.1-9.39t-6.38-2.68q-4.37,0-6.43,2.93t-2.06,8.3V401h-8.74V376.06q0-6.7-2.1-9.39t-6.38-2.68q-4.37,0-6.43,2.93t-2.06,8.3V401h-8.74v-44.1h8.74v4.25a11.48,11.48,0,0,1,4.38-3.82,13.47,13.47,0,0,1,6.15-1.36,14.94,14.94,0,0,1,7.45,1.66,12.23,12.23,0,0,1,4.67,4.88,21.12,21.12,0,0,1,2.49-2.72,14.14,14.14,0,0,1,2.91-2,14.88,14.88,0,0,1,3.58-1.32,20.16,20.16,0,0,1,4.6-.47q7.76,0,11.47,5t3.71,14.78V401h-8.74Z" transform="translate(-76.51 -78.77)"/></svg>