<?xml version="1.0" encoding="UTF-8"?>
<!DOCTYPE svg PUBLIC "-//W3C//DTD SVG 1.1//EN" "http://www.w3.org/Graphics/SVG/1.1/DTD/svg11.dtd">
<svg xmlns="http://www.w3.org/2000/svg" version="1.1" width="256px" height="256px" style="shape-rendering:geometricPrecision; text-rendering:geometricPrecision; image-rendering:optimizeQuality; fill-rule:evenodd; clip-rule:evenodd" xmlns:xlink="http://www.w3.org/1999/xlink">
    <g><path style="opacity:1" fill="#091139" d="M 13.5,-0.5 C 89.5,-0.5 165.5,-0.5 241.5,-0.5C 248.167,2.16667 252.833,6.83333 255.5,13.5C 255.5,89.5 255.5,165.5 255.5,241.5C 252.833,248.167 248.167,252.833 241.5,255.5C 165.5,255.5 89.5,255.5 13.5,255.5C 6.83333,252.833 2.16667,248.167 -0.5,241.5C -0.5,165.5 -0.5,89.5 -0.5,13.5C 2.16667,6.83333 6.83333,2.16667 13.5,-0.5 Z"/></g>
    <g><path style="opacity:1" fill="#95dce6" d="M 84.5,96.5 C 88.5,96.5 92.5,96.5 96.5,96.5C 96.5,101.5 96.5,106.5 96.5,111.5C 101.167,111.5 105.833,111.5 110.5,111.5C 110.5,115.5 110.5,119.5 110.5,123.5C 105.833,123.5 101.167,123.5 96.5,123.5C 96.5,135.167 96.5,146.833 96.5,158.5C 92.5,158.5 88.5,158.5 84.5,158.5C 84.5,137.833 84.5,117.167 84.5,96.5 Z"/></g>
    <g><path style="opacity:1" fill="#94dbe6" d="M 119.5,96.5 C 123.5,96.5 127.5,96.5 131.5,96.5C 131.5,117.167 131.5,137.833 131.5,158.5C 127.5,158.5 123.5,158.5 119.5,158.5C 119.5,137.833 119.5,117.167 119.5,96.5 Z"/></g>
    <g><path style="opacity:1" fill="#95dbe6" d="M 40.5,111.5 C 44.8461,111.334 49.1794,111.501 53.5,112C 55.519,112.45 57.3523,113.283 59,114.5C 59.4828,113.552 59.6495,112.552 59.5,111.5C 63.5,111.5 67.5,111.5 71.5,111.5C 71.5,127.167 71.5,142.833 71.5,158.5C 66.915,159.013 62.5817,158.346 58.5,156.5C 41.8245,162.413 30.3245,157.08 24,140.5C 22.2786,126.599 27.7786,116.932 40.5,111.5 Z"/></g>
    <g><path style="opacity:1" fill="#93d9e4" d="M 159.5,111.5 C 165.987,110.883 172.154,111.883 178,114.5C 178.483,113.552 178.649,112.552 178.5,111.5C 182.5,111.5 186.5,111.5 190.5,111.5C 190.5,127.167 190.5,142.833 190.5,158.5C 185.915,159.013 181.582,158.346 177.5,156.5C 161.827,162.25 150.327,157.584 143,142.5C 140.135,127.557 145.635,117.224 159.5,111.5 Z"/></g>
    <g><path style="opacity:1" fill="#94dae5" d="M 211.5,111.5 C 217.833,111.5 224.167,111.5 230.5,111.5C 230.5,115.5 230.5,119.5 230.5,123.5C 225.156,123.334 219.823,123.501 214.5,124C 213.253,125.458 213.253,126.958 214.5,128.5C 229.365,130.574 234.198,138.574 229,152.5C 226.519,156.314 223.019,158.481 218.5,159C 213.177,159.499 207.844,159.666 202.5,159.5C 202.5,155.5 202.5,151.5 202.5,147.5C 207.511,147.666 212.511,147.499 217.5,147C 219.527,145.604 219.86,143.938 218.5,142C 203.67,139.488 198.837,131.321 204,117.5C 206.114,114.879 208.614,112.879 211.5,111.5 Z"/></g>
    <g><path style="opacity:1" fill="#0b143b" d="M 42.5,123.5 C 54.2749,121.783 59.7749,126.783 59,138.5C 54.974,146.842 48.8073,149.008 40.5,145C 33.4619,137.135 34.1286,129.968 42.5,123.5 Z"/></g>
    <g><path style="opacity:1" fill="#0b143b" d="M 161.5,123.5 C 170.817,121.989 176.484,125.822 178.5,135C 177.167,144.333 171.834,148.333 162.5,147C 155.526,143.551 153.026,138.051 155,130.5C 156.694,127.642 158.861,125.309 161.5,123.5 Z"/></g>
</svg>
