<svg height="238.193" width="711.364" xmlns="http://www.w3.org/2000/svg"><path d="m273.539.081h-29.424c-5.424 0-8.981 4.179-8.981 9.423v219.13c0 5.245 3.557 9.447 8.981 9.447h29.424c5.424 0 9.595-4.202 9.595-9.447v-219.13c0-5.244-4.171-9.423-9.595-9.423m-91.877 173.041c-2.671-5.859-10.327-7.473-15.027-3.072-12.446 11.658-29.136 18.819-47.538 18.819-48.218 0-85.012-48.909-63.477-99.824 6.365-15.049 18.442-27.092 33.495-33.447 29.421-12.421 58.048-5.345 77.037 12.095 4.749 4.361 12.365 2.814 15.04-3.054l12.744-27.956c2.039-4.474.631-9.721-3.292-12.685-29.855-22.561-70.607-31.418-113.082-16.946-34.09 11.614-60.672 39.102-71.497 73.451-25.894 82.163 34.749 157.69 113.032 157.69 27.245 0 52.286-9.214 72.327-24.633 3.786-2.913 4.973-8.113 2.991-12.462zm523.637-92.619c-10.825-34.349-37.407-61.837-71.497-73.451-24.128-8.221-47.698-8.906-69.033-3.835-35.585 7.946-61.358 24.817-84.01 73.453l-45.455 98.598-77.154-169.601a9.498 9.498 0 0 0 -8.626-5.56l-33.706-.053c-6.917-.011-11.524 7.142-8.653 13.436l100.064 218.79c1.542 3.383 4.917 5.67 8.634 5.671l1.637.131h37.841c.761 0 1.522-.157 2.244-.403 2.604-.887 4.798-2.745 5.938-5.311 0 0 50.098-114.027 50.681-115.402 15.244-35.949 24.495-50.922 48.691-61.206 18.307-7.78 39.955-8.727 60.885.753 14.57 6.599 26.028 18.657 32.122 33.443a80.065 80.065 0 0 1 6.122 28.142c.545 38.992-30.891 70.773-69.758 70.773-18.402 0-35.092-7.162-47.538-18.819-4.7-4.402-12.356-2.788-15.027 3.071l-12.754 27.977c-1.981 4.348-.795 9.547 2.993 12.461 20.04 15.418 45.081 24.633 72.326 24.633 78.284-.001 138.926-75.528 113.033-157.691" fill="#239dff"/></svg>